<svg xmlns="http://www.w3.org/2000/svg" width="1214" height="1214" viewBox="0 0 1214 1214">
    <g fill="none" fill-rule="evenodd" opacity=".128">
        <path stroke="#000" d="M.5.5h1213v1213H.5z"/>
        <path fill="#000" d="M0 65.511h1214v2.047H0zM0 133.069h1214v2.047H0zM0 200.627h1214v2.047H0zM0 268.185h1214v2.047H0zM0 335.744h1214v2.047H0zM0 403.302h1214v2.047H0zM0 470.86h1214v2.047H0zM0 538.418h1214v2.047H0zM0 605.976h1214v2.047H0zM0 673.535h1214v2.047H0zM0 741.093h1214v2.047H0zM0 808.651h1214v2.047H0zM0 876.209h1214v2.047H0zM0 943.767h1214v2.047H0zM0 1011.325h1214v2.047H0zM0 1078.884h1214v2.047H0zM0 1146.442h1214v2.047H0z"/>
        <path fill="#000" d="M65.511 0h2.047v1214h-2.047zM133.069 0h2.047v1214h-2.047zM200.627 0h2.047v1214h-2.047zM268.185 0h2.047v1214h-2.047zM335.744 0h2.047v1214h-2.047zM403.302 0h2.047v1214h-2.047zM470.86 0h2.047v1214h-2.047zM538.418 0h2.047v1214h-2.047zM605.976 0h2.047v1214h-2.047zM673.535 0h2.047v1214h-2.047zM741.093 0h2.047v1214h-2.047zM808.651 0h2.047v1214h-2.047zM876.209 0h2.047v1214h-2.047zM943.767 0h2.047v1214h-2.047zM1011.325 0h2.047v1214h-2.047zM1078.884 0h2.047v1214h-2.047zM1146.442 0h2.047v1214h-2.047z"/>
        <circle cx="201" cy="201" r="6" fill="#000"/>
        <circle cx="202" cy="607" r="6" fill="#000"/>
        <circle cx="202" cy="1012" r="6" fill="#000"/>
        <circle cx="607" cy="201" r="6" fill="#000"/>
        <circle cx="607" cy="608" r="6" fill="#000"/>
        <circle cx="607" cy="1012" r="6" fill="#000"/>
        <circle cx="1012" cy="202" r="6" fill="#000"/>
        <circle cx="1013" cy="608" r="6" fill="#000"/>
        <circle cx="1012" cy="1012" r="6" fill="#000"/>
    </g>
</svg>
